<mxfile host="app.diagrams.net" agent="Mozilla/5.0 (Windows NT 10.0; Win64; x64) AppleWebKit/537.36 (KHTML, like Gecko) Chrome/132.0.0.0 Safari/537.36" version="26.0.11">
  <diagram name="Page-1" id="0783ab3e-0a74-02c8-0abd-f7b4e66b4bec">
    <mxGraphModel dx="1434" dy="746" grid="1" gridSize="10" guides="1" tooltips="1" connect="1" arrows="1" fold="1" page="1" pageScale="1" pageWidth="850" pageHeight="1100" background="none" math="0" shadow="0">
      <root>
        <mxCell id="0" />
        <mxCell id="1" parent="0" />
        <mxCell id="1c1d494c118603dd-1" value="架构" style="swimlane;html=1;childLayout=stackLayout;startSize=20;rounded=0;shadow=0;comic=0;labelBackgroundColor=none;strokeWidth=1;fontFamily=Verdana;fontSize=12;align=center;" parent="1" vertex="1">
          <mxGeometry x="40" y="20" width="1000" height="990" as="geometry">
            <mxRectangle x="40" y="20" width="70" height="30" as="alternateBounds" />
          </mxGeometry>
        </mxCell>
        <mxCell id="1c1d494c118603dd-2" value="H5" style="swimlane;html=1;startSize=20;" parent="1c1d494c118603dd-1" vertex="1">
          <mxGeometry y="20" width="250" height="970" as="geometry" />
        </mxCell>
        <mxCell id="ocj1CgmqMz30wy2Bw-0x-1" value="公众号入口" style="rounded=0;whiteSpace=wrap;html=1;" vertex="1" parent="1c1d494c118603dd-2">
          <mxGeometry x="65" y="40" width="120" height="560" as="geometry" />
        </mxCell>
        <mxCell id="ocj1CgmqMz30wy2Bw-0x-27" style="edgeStyle=orthogonalEdgeStyle;rounded=0;orthogonalLoop=1;jettySize=auto;html=1;entryX=1;entryY=0.5;entryDx=0;entryDy=0;" edge="1" parent="1c1d494c118603dd-2">
          <mxGeometry relative="1" as="geometry">
            <mxPoint x="320" y="220" as="sourcePoint" />
            <mxPoint x="185" y="310" as="targetPoint" />
            <Array as="points" />
          </mxGeometry>
        </mxCell>
        <mxCell id="ocj1CgmqMz30wy2Bw-0x-40" value="Text" style="edgeLabel;html=1;align=center;verticalAlign=middle;resizable=0;points=[];" vertex="1" connectable="0" parent="ocj1CgmqMz30wy2Bw-0x-27">
          <mxGeometry x="0.9822" y="-2" relative="1" as="geometry">
            <mxPoint as="offset" />
          </mxGeometry>
        </mxCell>
        <mxCell id="ocj1CgmqMz30wy2Bw-0x-39" style="edgeStyle=orthogonalEdgeStyle;rounded=0;orthogonalLoop=1;jettySize=auto;html=1;entryX=1.008;entryY=0.323;entryDx=0;entryDy=0;entryPerimeter=0;" edge="1" parent="1c1d494c118603dd-2" target="ocj1CgmqMz30wy2Bw-0x-1">
          <mxGeometry relative="1" as="geometry">
            <mxPoint x="320" y="220" as="sourcePoint" />
            <mxPoint x="185" y="310" as="targetPoint" />
            <Array as="points" />
          </mxGeometry>
        </mxCell>
        <mxCell id="ocj1CgmqMz30wy2Bw-0x-41" style="edgeStyle=orthogonalEdgeStyle;rounded=0;orthogonalLoop=1;jettySize=auto;html=1;exitX=1;exitY=0.75;exitDx=0;exitDy=0;" edge="1" parent="1c1d494c118603dd-2" source="ocj1CgmqMz30wy2Bw-0x-1">
          <mxGeometry relative="1" as="geometry">
            <mxPoint x="840" y="365" as="targetPoint" />
            <mxPoint x="225" y="500" as="sourcePoint" />
            <Array as="points">
              <mxPoint x="185" y="320" />
              <mxPoint x="840" y="320" />
            </Array>
          </mxGeometry>
        </mxCell>
        <mxCell id="ocj1CgmqMz30wy2Bw-0x-42" value="Text" style="edgeLabel;html=1;align=center;verticalAlign=middle;resizable=0;points=[];" vertex="1" connectable="0" parent="ocj1CgmqMz30wy2Bw-0x-41">
          <mxGeometry x="0.7524" y="-2" relative="1" as="geometry">
            <mxPoint as="offset" />
          </mxGeometry>
        </mxCell>
        <mxCell id="ocj1CgmqMz30wy2Bw-0x-47" value="" style="endArrow=classic;html=1;rounded=0;exitX=0.992;exitY=0.821;exitDx=0;exitDy=0;exitPerimeter=0;" edge="1" parent="1c1d494c118603dd-2" source="ocj1CgmqMz30wy2Bw-0x-1">
          <mxGeometry width="50" height="50" relative="1" as="geometry">
            <mxPoint x="180" y="500" as="sourcePoint" />
            <mxPoint x="560" y="500" as="targetPoint" />
          </mxGeometry>
        </mxCell>
        <mxCell id="1c1d494c118603dd-3" value="正式服务" style="swimlane;html=1;startSize=20;" parent="1c1d494c118603dd-1" vertex="1">
          <mxGeometry x="250" y="20" width="250" height="970" as="geometry" />
        </mxCell>
        <mxCell id="ocj1CgmqMz30wy2Bw-0x-12" value="获取 access_token (openid)" style="text;html=1;align=center;verticalAlign=middle;resizable=0;points=[];autosize=1;strokeColor=none;fillColor=none;" vertex="1" parent="1c1d494c118603dd-3">
          <mxGeometry x="60" y="38" width="170" height="30" as="geometry" />
        </mxCell>
        <mxCell id="ocj1CgmqMz30wy2Bw-0x-15" value="生成报告" style="rounded=0;whiteSpace=wrap;html=1;" vertex="1" parent="1c1d494c118603dd-3">
          <mxGeometry x="70" y="130" width="120" height="120" as="geometry" />
        </mxCell>
        <mxCell id="ocj1CgmqMz30wy2Bw-0x-16" value="openid" style="text;html=1;align=center;verticalAlign=middle;resizable=0;points=[];autosize=1;strokeColor=none;fillColor=none;" vertex="1" parent="1c1d494c118603dd-3">
          <mxGeometry x="-30" y="130" width="60" height="30" as="geometry" />
        </mxCell>
        <mxCell id="ocj1CgmqMz30wy2Bw-0x-14" style="edgeStyle=orthogonalEdgeStyle;rounded=0;orthogonalLoop=1;jettySize=auto;html=1;" edge="1" parent="1c1d494c118603dd-3">
          <mxGeometry relative="1" as="geometry">
            <mxPoint x="70" y="150" as="targetPoint" />
            <mxPoint x="-65" y="150" as="sourcePoint" />
            <Array as="points">
              <mxPoint x="-50" y="150" />
              <mxPoint x="-50" y="150" />
            </Array>
          </mxGeometry>
        </mxCell>
        <mxCell id="ocj1CgmqMz30wy2Bw-0x-28" value="需要支付" style="text;html=1;align=center;verticalAlign=middle;resizable=0;points=[];autosize=1;strokeColor=none;fillColor=none;" vertex="1" parent="1c1d494c118603dd-3">
          <mxGeometry x="-40" y="200" width="70" height="30" as="geometry" />
        </mxCell>
        <mxCell id="1c1d494c118603dd-4" value="odoo" style="swimlane;html=1;startSize=20;" parent="1c1d494c118603dd-1" vertex="1">
          <mxGeometry x="500" y="20" width="250" height="970" as="geometry" />
        </mxCell>
        <mxCell id="ocj1CgmqMz30wy2Bw-0x-18" value="我的报告" style="rounded=1;whiteSpace=wrap;html=1;" vertex="1" parent="1c1d494c118603dd-4">
          <mxGeometry x="65" y="460" width="120" height="130" as="geometry" />
        </mxCell>
        <mxCell id="ocj1CgmqMz30wy2Bw-0x-35" value="支付成功" style="whiteSpace=wrap;html=1;" vertex="1" parent="1c1d494c118603dd-4">
          <mxGeometry x="-190" y="350" width="120" height="70" as="geometry" />
        </mxCell>
        <mxCell id="ocj1CgmqMz30wy2Bw-0x-34" style="edgeStyle=orthogonalEdgeStyle;rounded=0;orthogonalLoop=1;jettySize=auto;html=1;" edge="1" parent="1c1d494c118603dd-4">
          <mxGeometry relative="1" as="geometry">
            <mxPoint x="-70" y="390" as="targetPoint" />
            <mxPoint x="300" y="390" as="sourcePoint" />
            <Array as="points">
              <mxPoint x="90" y="390" />
              <mxPoint x="90" y="391" />
            </Array>
          </mxGeometry>
        </mxCell>
        <mxCell id="ocj1CgmqMz30wy2Bw-0x-51" value="" style="curved=1;endArrow=classic;html=1;rounded=0;exitX=0.5;exitY=0;exitDx=0;exitDy=0;entryX=1.008;entryY=0.433;entryDx=0;entryDy=0;entryPerimeter=0;" edge="1" parent="1c1d494c118603dd-4" source="ocj1CgmqMz30wy2Bw-0x-18" target="ocj1CgmqMz30wy2Bw-0x-15">
          <mxGeometry width="50" height="50" relative="1" as="geometry">
            <mxPoint x="70" y="320" as="sourcePoint" />
            <mxPoint x="120" y="270" as="targetPoint" />
            <Array as="points">
              <mxPoint x="120" y="320" />
              <mxPoint x="130" y="182" />
              <mxPoint x="110" y="182" />
              <mxPoint x="20" y="180" />
            </Array>
          </mxGeometry>
        </mxCell>
        <mxCell id="ocj1CgmqMz30wy2Bw-0x-53" value="用户的 openid" style="edgeLabel;html=1;align=center;verticalAlign=middle;resizable=0;points=[];" vertex="1" connectable="0" parent="ocj1CgmqMz30wy2Bw-0x-51">
          <mxGeometry x="-0.1606" relative="1" as="geometry">
            <mxPoint as="offset" />
          </mxGeometry>
        </mxCell>
        <mxCell id="ocj1CgmqMz30wy2Bw-0x-37" style="edgeStyle=orthogonalEdgeStyle;rounded=0;orthogonalLoop=1;jettySize=auto;html=1;" edge="1" parent="1c1d494c118603dd-1" source="ocj1CgmqMz30wy2Bw-0x-35">
          <mxGeometry relative="1" as="geometry">
            <mxPoint x="181" y="410" as="targetPoint" />
            <Array as="points">
              <mxPoint x="181" y="405" />
            </Array>
          </mxGeometry>
        </mxCell>
        <mxCell id="ocj1CgmqMz30wy2Bw-0x-4" value="微信服务器" style="swimlane;html=1;startSize=20;" vertex="1" parent="1">
          <mxGeometry x="790" y="40" width="250" height="970" as="geometry" />
        </mxCell>
        <mxCell id="ocj1CgmqMz30wy2Bw-0x-6" value="鉴权服务器" style="rounded=0;whiteSpace=wrap;html=1;" vertex="1" parent="ocj1CgmqMz30wy2Bw-0x-4">
          <mxGeometry x="50" y="40" width="150" height="160" as="geometry" />
        </mxCell>
        <mxCell id="ocj1CgmqMz30wy2Bw-0x-32" value="支付服务" style="whiteSpace=wrap;html=1;" vertex="1" parent="ocj1CgmqMz30wy2Bw-0x-4">
          <mxGeometry x="50" y="300" width="150" height="120" as="geometry" />
        </mxCell>
        <mxCell id="ocj1CgmqMz30wy2Bw-0x-5" style="edgeStyle=orthogonalEdgeStyle;rounded=0;orthogonalLoop=1;jettySize=auto;html=1;" edge="1" parent="1" source="ocj1CgmqMz30wy2Bw-0x-1" target="ocj1CgmqMz30wy2Bw-0x-6">
          <mxGeometry relative="1" as="geometry">
            <mxPoint x="850" y="120" as="targetPoint" />
            <Array as="points">
              <mxPoint x="470" y="100" />
              <mxPoint x="470" y="100" />
            </Array>
          </mxGeometry>
        </mxCell>
        <mxCell id="ocj1CgmqMz30wy2Bw-0x-10" style="edgeStyle=orthogonalEdgeStyle;rounded=0;orthogonalLoop=1;jettySize=auto;html=1;" edge="1" parent="1" source="ocj1CgmqMz30wy2Bw-0x-6">
          <mxGeometry relative="1" as="geometry">
            <mxPoint x="224" y="150" as="targetPoint" />
            <Array as="points">
              <mxPoint x="690" y="150" />
              <mxPoint x="690" y="150" />
            </Array>
          </mxGeometry>
        </mxCell>
        <mxCell id="ocj1CgmqMz30wy2Bw-0x-33" value="发起支付" style="text;html=1;align=center;verticalAlign=middle;resizable=0;points=[];autosize=1;strokeColor=none;fillColor=none;" vertex="1" parent="1">
          <mxGeometry x="425" y="338" width="70" height="30" as="geometry" />
        </mxCell>
        <mxCell id="ocj1CgmqMz30wy2Bw-0x-36" value="支付回调" style="text;html=1;align=center;verticalAlign=middle;resizable=0;points=[];autosize=1;strokeColor=none;fillColor=none;" vertex="1" parent="1">
          <mxGeometry x="605" y="408" width="70" height="30" as="geometry" />
        </mxCell>
      </root>
    </mxGraphModel>
  </diagram>
</mxfile>
